<svg width="26" height="8" viewBox="0 0 26 8" fill="none" xmlns="http://www.w3.org/2000/svg">
<path d="M2.14666 7.89354H0L4.16016 0.106464H6.81928L8.23559 7.89354H6.08893L5.18104 2.06844H5.11647L2.14666 7.89354ZM2.4049 4.8289H6.89191L6.63366 6.25856H2.14666L2.4049 4.8289Z" fill="#059669"/>
<path d="M17.1057 2.92776H15.1124C15.1231 2.73004 15.1029 2.55387 15.0518 2.39924C15.0007 2.24208 14.92 2.10773 14.8097 1.9962C14.6994 1.88213 14.5622 1.79594 14.3982 1.73764C14.2341 1.67934 14.0431 1.65019 13.8252 1.65019C13.4082 1.65019 13.0303 1.74778 12.6913 1.94297C12.3524 2.13815 12.0686 2.41952 11.8399 2.78707C11.6113 3.15463 11.4512 3.59569 11.3597 4.11027C11.2764 4.6071 11.2777 5.02155 11.3638 5.35361C11.4526 5.68568 11.6166 5.93536 11.8561 6.10266C12.0955 6.26743 12.3994 6.34981 12.768 6.34981C13.0074 6.34981 13.2293 6.32319 13.4338 6.26996C13.6409 6.2142 13.8279 6.13435 13.9946 6.03042C14.1614 5.92649 14.3053 5.80101 14.4264 5.65399C14.5501 5.50444 14.6456 5.3384 14.7129 5.15589H16.7224C16.6228 5.4981 16.4587 5.83904 16.2301 6.17871C16.0041 6.51584 15.719 6.82129 15.3746 7.09506C15.0303 7.36882 14.6308 7.58809 14.1762 7.75285C13.7216 7.91762 13.2159 8 12.659 8C11.8978 8 11.2414 7.83904 10.6899 7.51711C10.1412 7.19518 9.74437 6.72877 9.49957 6.11787C9.25747 5.50444 9.21174 4.76172 9.36238 3.88973C9.51033 3.04563 9.80221 2.3346 10.238 1.75665C10.6765 1.17871 11.2091 0.741445 11.8359 0.444867C12.4654 0.148289 13.1365 0 13.8494 0C14.3659 0 14.8299 0.0659061 15.2415 0.197719C15.6558 0.326996 16.0068 0.51711 16.2946 0.76806C16.5825 1.01648 16.7963 1.32193 16.9362 1.68441C17.0788 2.04689 17.1353 2.46134 17.1057 2.92776Z" fill="#059669"/>
<path d="M17.3811 7.89354L18.753 0.106464H20.7504L20.2016 3.23194H23.4579L24.0067 0.106464H26L24.6281 7.89354H22.6348L23.1835 4.76426H19.9272L19.3784 7.89354H17.3811Z" fill="#059669"/>
</svg>
