<svg width="17" height="9" viewBox="0 0 17 9" fill="none" xmlns="http://www.w3.org/2000/svg">
<path d="M7.70721 3.10938H5.53534C5.55097 2.92448 5.54055 2.75781 5.50409 2.60938C5.46763 2.46094 5.40513 2.33333 5.31659 2.22656C5.22805 2.11719 5.11216 2.03385 4.96893 1.97656C4.8257 1.91927 4.65513 1.89062 4.45721 1.89062C4.07701 1.89062 3.73716 1.98568 3.43768 2.17578C3.1382 2.36328 2.88951 2.63281 2.69159 2.98438C2.49367 3.33333 2.35305 3.75 2.26971 4.23438C2.1968 4.70313 2.19419 5.09245 2.2619 5.40234C2.33221 5.71224 2.46893 5.94401 2.67206 6.09766C2.87779 6.2513 3.14471 6.32813 3.47284 6.32813C3.69159 6.32813 3.89211 6.30208 4.0744 6.25C4.2593 6.19792 4.42336 6.1237 4.56659 6.02734C4.71242 5.92839 4.83612 5.8112 4.93768 5.67578C5.04185 5.53776 5.12128 5.38542 5.17597 5.21875H7.36347C7.28013 5.55729 7.13169 5.90365 6.91815 6.25781C6.70461 6.60938 6.42857 6.93359 6.09003 7.23047C5.75149 7.52474 5.35305 7.76302 4.89471 7.94531C4.43638 8.1276 3.92076 8.21875 3.34784 8.21875C2.59784 8.21875 1.9507 8.05469 1.40643 7.72656C0.864767 7.39844 0.471538 6.91927 0.226746 6.28906C-0.0154415 5.65885 -0.0636186 4.89063 0.0822148 3.98438C0.228048 3.10938 0.515809 2.3763 0.945496 1.78516C1.37518 1.19401 1.89732 0.748698 2.5119 0.449219C3.12649 0.14974 3.78013 0 4.47284 0C4.99628 0 5.46503 0.0690106 5.87909 0.207031C6.29576 0.345052 6.64602 0.546875 6.92987 0.8125C7.21633 1.07552 7.42727 1.39974 7.56268 1.78516C7.6981 2.17057 7.74628 2.61198 7.70721 3.10938Z" fill="#159D73"/>
<path d="M16.1613 3.10938H13.9894C14.0051 2.92448 13.9946 2.75781 13.9582 2.60938C13.9217 2.46094 13.8592 2.33333 13.7707 2.22656C13.6821 2.11719 13.5663 2.03385 13.423 1.97656C13.2798 1.91927 13.1092 1.89062 12.9113 1.89062C12.5311 1.89062 12.1913 1.98568 11.8918 2.17578C11.5923 2.36328 11.3436 2.63281 11.1457 2.98438C10.9478 3.33333 10.8071 3.75 10.7238 4.23438C10.6509 4.70313 10.6483 5.09245 10.716 5.40234C10.7863 5.71224 10.923 5.94401 11.1262 6.09766C11.3319 6.2513 11.5988 6.32813 11.9269 6.32813C12.1457 6.32813 12.3462 6.30208 12.5285 6.25C12.7134 6.19792 12.8775 6.1237 13.0207 6.02734C13.1665 5.92839 13.2902 5.8112 13.3918 5.67578C13.496 5.53776 13.5754 5.38542 13.6301 5.21875H15.8176C15.7342 5.55729 15.5858 5.90365 15.3723 6.25781C15.1587 6.60938 14.8827 6.93359 14.5441 7.23047C14.2056 7.52474 13.8071 7.76302 13.3488 7.94531C12.8905 8.1276 12.3749 8.21875 11.8019 8.21875C11.0519 8.21875 10.4048 8.05469 9.86053 7.72656C9.31887 7.39844 8.92564 6.91927 8.68085 6.28906C8.43866 5.65885 8.39048 4.89063 8.53632 3.98438C8.68215 3.10938 8.96991 2.3763 9.3996 1.78516C9.82928 1.19401 10.3514 0.748698 10.966 0.449219C11.5806 0.14974 12.2342 0 12.9269 0C13.4504 0 13.9191 0.0690106 14.3332 0.207031C14.7499 0.345052 15.1001 0.546875 15.384 0.8125C15.6704 1.07552 15.8814 1.39974 16.0168 1.78516C16.1522 2.17057 16.2004 2.61198 16.1613 3.10938Z" fill="#159D73"/>
</svg>
