<svg class="animate-spin" width="64" height="64" viewBox="0 0 64 64" fill="none" xmlns="http://www.w3.org/2000/svg">
<rect width="64" height="64" rx="32" fill="#E0F2FE"/>
<path d="M32.0001 18.6667C32.3537 18.6667 32.6928 18.8072 32.9429 19.0573C33.1929 19.3073 33.3334 19.6465 33.3334 20.0001V24.0001C33.3334 24.3537 33.1929 24.6928 32.9429 24.9429C32.6928 25.1929 32.3537 25.3334 32.0001 25.3334C31.6465 25.3334 31.3073 25.1929 31.0573 24.9429C30.8072 24.6928 30.6667 24.3537 30.6667 24.0001V20.0001C30.6667 19.6465 30.8072 19.3073 31.0573 19.0573C31.3073 18.8072 31.6465 18.6667 32.0001 18.6667ZM32.0001 38.6667C32.3537 38.6667 32.6928 38.8072 32.9429 39.0573C33.1929 39.3073 33.3334 39.6465 33.3334 40.0001V44.0001C33.3334 44.3537 33.1929 44.6928 32.9429 44.9429C32.6928 45.1929 32.3537 45.3334 32.0001 45.3334C31.6465 45.3334 31.3073 45.1929 31.0573 44.9429C30.8072 44.6928 30.6667 44.3537 30.6667 44.0001V40.0001C30.6667 39.6465 30.8072 39.3073 31.0573 39.0573C31.3073 38.8072 31.6465 38.6667 32.0001 38.6667ZM43.5467 25.3334C43.7235 25.6397 43.7715 26.0036 43.6799 26.3451C43.5884 26.6867 43.365 26.9779 43.0587 27.1547L39.5947 29.1547C39.4431 29.2437 39.2753 29.3017 39.101 29.3255C38.9268 29.3494 38.7496 29.3385 38.5796 29.2935C38.4096 29.2486 38.2502 29.1705 38.1105 29.0637C37.9708 28.9569 37.8537 28.8235 37.7657 28.6712C37.6778 28.5189 37.6209 28.3507 37.5982 28.1764C37.5755 28.002 37.5876 27.8249 37.6337 27.6552C37.6797 27.4855 37.7589 27.3266 37.8667 27.1876C37.9744 27.0486 38.1086 26.9323 38.2614 26.8454L41.7254 24.8454C42.0317 24.6686 42.3956 24.6207 42.7371 24.7122C43.0787 24.8037 43.3699 25.0272 43.5467 25.3334ZM26.2267 35.3334C26.4036 35.6397 26.4515 36.0036 26.3599 36.3451C26.2684 36.6867 26.045 36.9779 25.7387 37.1547L22.2747 39.1547C22.1231 39.2437 21.9553 39.3017 21.781 39.3255C21.6068 39.3494 21.4296 39.3385 21.2596 39.2935C21.0896 39.2486 20.9302 39.1705 20.7905 39.0637C20.6508 38.9569 20.5337 38.8235 20.4457 38.6712C20.3578 38.5189 20.3009 38.3507 20.2782 38.1764C20.2555 38.002 20.2676 37.8249 20.3137 37.6552C20.3597 37.4855 20.4389 37.3266 20.5467 37.1876C20.6544 37.0486 20.7886 36.9323 20.9414 36.8454L24.4054 34.8454C24.7117 34.6686 25.0756 34.6207 25.4171 34.7122C25.7587 34.8037 26.0499 35.0272 26.2267 35.3334ZM43.5467 38.6667C43.3699 38.973 43.0787 39.1964 42.7371 39.2879C42.3956 39.3795 42.0317 39.3316 41.7254 39.1547L38.2614 37.1547C37.9577 36.9767 37.7367 36.6857 37.6467 36.3453C37.5567 36.0049 37.605 35.6427 37.781 35.3378C37.9571 35.0329 38.2466 34.81 38.5864 34.7178C38.9262 34.6255 39.2887 34.6714 39.5947 34.8454L43.0587 36.8454C43.365 37.0222 43.5884 37.3135 43.6799 37.655C43.7715 37.9966 43.7235 38.3605 43.5467 38.6667ZM26.2267 28.6667C26.0499 28.973 25.7587 29.1964 25.4171 29.2879C25.0756 29.3795 24.7117 29.3316 24.4054 29.1547L20.9414 27.1547C20.7886 27.0678 20.6544 26.9516 20.5467 26.8126C20.4389 26.6736 20.3597 26.5147 20.3137 26.345C20.2676 26.1753 20.2555 25.9982 20.2782 25.8238C20.3009 25.6494 20.3578 25.4813 20.4457 25.329C20.5337 25.1767 20.6508 25.0433 20.7905 24.9365C20.9302 24.8297 21.0896 24.7516 21.2596 24.7066C21.4296 24.6617 21.6068 24.6508 21.781 24.6746C21.9553 24.6984 22.1231 24.7565 22.2747 24.8454L25.7387 26.8454C26.045 27.0222 26.2684 27.3135 26.3599 27.655C26.4515 27.9966 26.4036 28.3605 26.2267 28.6667Z" fill="#0EA5E9"/>
</svg>
