<svg width="25" height="28" viewBox="0 0 25 28" fill="none" xmlns="http://www.w3.org/2000/svg">
<path d="M12.5 0.666504C12.8536 0.666504 13.1927 0.80698 13.4428 1.05703C13.6928 1.30708 13.8333 1.64622 13.8333 1.99984V5.99984C13.8333 6.35346 13.6928 6.6926 13.4428 6.94265C13.1927 7.19269 12.8536 7.33317 12.5 7.33317C12.1463 7.33317 11.8072 7.19269 11.5572 6.94265C11.3071 6.6926 11.1666 6.35346 11.1666 5.99984V1.99984C11.1666 1.64622 11.3071 1.30708 11.5572 1.05703C11.8072 0.80698 12.1463 0.666504 12.5 0.666504ZM12.5 20.6665C12.8536 20.6665 13.1927 20.807 13.4428 21.057C13.6928 21.3071 13.8333 21.6462 13.8333 21.9998V25.9998C13.8333 26.3535 13.6928 26.6926 13.4428 26.9426C13.1927 27.1927 12.8536 27.3332 12.5 27.3332C12.1463 27.3332 11.8072 27.1927 11.5572 26.9426C11.3071 26.6926 11.1666 26.3535 11.1666 25.9998V21.9998C11.1666 21.6462 11.3071 21.3071 11.5572 21.057C11.8072 20.807 12.1463 20.6665 12.5 20.6665ZM24.0466 7.33317C24.2234 7.63941 24.2713 8.00334 24.1798 8.3449C24.0883 8.68647 23.8649 8.97769 23.5586 9.1545L20.0946 11.1545C19.9429 11.2434 19.7751 11.3015 19.6009 11.3253C19.4267 11.3491 19.2495 11.3382 19.0795 11.2933C18.9095 11.2484 18.7501 11.1702 18.6104 11.0634C18.4707 10.9566 18.3535 10.8232 18.2656 10.6709C18.1777 10.5187 18.1208 10.3505 18.0981 10.1761C18.0754 10.0017 18.0875 9.82461 18.1335 9.65491C18.1796 9.48522 18.2588 9.32631 18.3665 9.18734C18.4743 9.04837 18.6084 8.93208 18.7613 8.84517L22.2253 6.84517C22.5315 6.66837 22.8955 6.62045 23.237 6.71197C23.5786 6.80349 23.8698 7.02694 24.0466 7.33317ZM6.72663 17.3332C6.90343 17.6394 6.95134 18.0033 6.85983 18.3449C6.76831 18.6865 6.54486 18.9777 6.23863 19.1545L2.77463 21.1545C2.62293 21.2434 2.45515 21.3015 2.28093 21.3253C2.10671 21.3491 1.9295 21.3382 1.7595 21.2933C1.5895 21.2484 1.43007 21.1702 1.29039 21.0634C1.15071 20.9566 1.03353 20.8232 0.945609 20.6709C0.857687 20.5187 0.800755 20.3505 0.77809 20.1761C0.755425 20.0017 0.767476 19.8246 0.813547 19.6549C0.859619 19.4852 0.938802 19.3263 1.04654 19.1873C1.15427 19.0484 1.28843 18.9321 1.44129 18.8452L4.90529 16.8452C5.21153 16.6684 5.57546 16.6205 5.91703 16.712C6.25859 16.8035 6.54981 17.0269 6.72663 17.3332ZM24.0466 20.6665C23.8698 20.9727 23.5786 21.1962 23.237 21.2877C22.8955 21.3792 22.5315 21.3313 22.2253 21.1545L18.7613 19.1545C18.4576 18.9764 18.2366 18.6855 18.1466 18.3451C18.0566 18.0047 18.1049 17.6425 18.2809 17.3376C18.457 17.0327 18.7465 16.8098 19.0863 16.7175C19.4261 16.6253 19.7885 16.6711 20.0946 16.8452L23.5586 18.8452C23.8649 19.022 24.0883 19.3132 24.1798 19.6548C24.2713 19.9963 24.2234 20.3603 24.0466 20.6665ZM6.72663 10.6665C6.54981 10.9727 6.25859 11.1962 5.91703 11.2877C5.57546 11.3792 5.21153 11.3313 4.90529 11.1545L1.44129 9.1545C1.28843 9.06759 1.15427 8.95131 1.04654 8.81234C0.938802 8.67337 0.859619 8.51446 0.813547 8.34476C0.767476 8.17506 0.755425 7.99793 0.77809 7.82356C0.800755 7.64918 0.857687 7.48101 0.945609 7.32873C1.03353 7.17645 1.15071 7.04307 1.29039 6.93626C1.43007 6.82944 1.5895 6.75132 1.7595 6.70637C1.9295 6.66143 2.10671 6.65055 2.28093 6.67437C2.45515 6.69819 2.62293 6.75624 2.77463 6.84517L6.23863 8.84517C6.54486 9.02199 6.76831 9.31321 6.85983 9.65477C6.95134 9.99634 6.90343 10.3603 6.72663 10.6665Z" fill="#0EA5E9"/>
</svg>
